.


[color=green]Movies : Animation : HD1080p :Arabic[/color]



Madagascar Europes Most Wanted 2012 Arabic 1080p x264 -alrmothe



[img]http://img442.imageshack.us/img442/96/coveruah.jpg[/img]





[img]http://img219.imageshack.us/img219/462/imdbt.png[/img]
[color=red]IMDB:[/color] 
http://www.imdb.com/title/tt1277953/
[color=green]Genre:[/color]Animation | Adventure | Comedy
[color=green]Source:[/color]Blu-ray Disc
[color=green]Language:[/color]Arabic
[color=green]File size:[/color]4.48 GiB

Overall bit rate:6871 Kbps

[color=green]Duration:[/color]1h 33mn
 
Encoded / Released By:alrmothe




[img]http://i.imgur.com/fXeWi.png[/img]

[color=red]Video Information[/color]
Format :Matroska
Format : AVC
Format profile:High@L5.0
Video Bit rate:6230 Kbps
Frame Rate: 23.976 fps
Bit depth : 8 bits
Scan type : Progressive
Bits/(Pixel*Frame):0.130
Stream size:3.98 GiB(89%)
[color=green]Resolution:1920x1040[/color]


[color=navy]Audio Information:[/color]
Format : AC-3
Bit rate mode : Constant
Bit rate : 640 Kbps
Channel(s) : 6 channels
Channel positions:Front: L C R, Side:L R,LFE
Sampling rate : 48.0 KHz
Bit depth : 16 bits
Compression mode : Lossy
Stream size:428 MiB(9%)
Language:Arabic



SUB:Arabic.sub




[color=red]Screenshots[/color]
 
http://img267.imageshack.us/img267/6471/20407172.png
 
http://img690.imageshack.us/img690/492/18514356.png
 
http://img27.imageshack.us/img27/3426/88481888.png
 
http://img22.imageshack.us/img22/3008/20833133.png


[img]http://img820.imageshack.us/img820/7767/madagascareuropesmostwa.png[/img]



[code] 
http://p2pdl.com:2710/announce
udp://tracker.1337x.org:80/announce 
http://exodus.desync.com/announce 
http://121.14.98.151:9090/announce 
http://tracker.ex.ua/announce 
http://tracker.torrentbay.to:6969/announce 
http://94.228.192.98/announce 
http://exodus.desync.com:6969/announce
[/code]






You can play movie on PlayStation 3 Media Server












Trailer




.